<?xml version="1.0" encoding="iso-8859-1"?>
<!-- Generator: Adobe Illustrator 19.0.0, SVG Export Plug-In . SVG Version: 6.00 Build 0)  -->
<svg version="1.1" id="Capa_1" xmlns="http://www.w3.org/2000/svg" xmlns:xlink="http://www.w3.org/1999/xlink" x="0px" y="0px"
	 viewBox="0 0 512 512" style="enable-background:new 0 0 512 512;" xml:space="preserve">
<g>
	<g>
		<path d="M504.485,56.109H354.22L259.786,1.024c-2.341-1.365-5.233-1.365-7.573,0L157.78,56.109H7.515
			C3.365,56.109,0,59.474,0,63.624v32.063c0,4.15,3.365,7.515,7.515,7.515h16.532v313.112c0,4.15,3.365,7.515,7.515,7.515h216.924
			v73.143h-24.548c-4.15,0-7.515,3.365-7.515,7.515c0,4.15,3.365,7.515,7.515,7.515h64.125c4.151,0,7.515-3.365,7.515-7.515
			c0-4.15-3.364-7.515-7.515-7.515h-24.548v-73.143h216.924c4.151,0,7.515-3.365,7.515-7.515V103.201h16.532
			c4.151,0,7.515-3.365,7.515-7.515V63.624C512,59.474,508.636,56.109,504.485,56.109z M256,16.214l68.392,39.895H187.608
			L256,16.214z M496.971,88.172h-76.65c-4.151,0-7.515,3.365-7.515,7.515s3.364,7.515,7.515,7.515h52.603v305.597H39.076V103.201
			h346.51c4.151,0,7.515-3.365,7.515-7.515s-3.364-7.515-7.515-7.515H15.029V71.139h481.941V88.172z"/>
	</g>
</g>
<g>
	<g>
		<path d="M159.812,120.235c-39.502,0-71.64,32.138-71.64,71.64s32.138,71.64,71.64,71.64s71.64-32.138,71.64-71.64
			S199.314,120.235,159.812,120.235z M159.812,248.485c-31.215,0-56.611-25.395-56.611-56.611s25.396-56.611,56.611-56.611
			s56.611,25.396,56.611,56.611S191.027,248.485,159.812,248.485z"/>
	</g>
</g>
<g>
	<g>
		<path d="M395.85,332.148l26.263-26.262c7.618-7.618,7.618-20.013,0-27.631c-7.531-7.533-20.101-7.533-27.632,0l-26.262,26.262
			l-26.262-26.262c-7.531-7.533-20.101-7.533-27.632,0c-7.618,7.618-7.618,20.013,0,27.631l26.263,26.262l-26.263,26.262
			c-7.618,7.618-7.618,20.013-0.001,27.63c7.53,7.532,20.103,7.533,27.633,0.001l26.262-26.262l26.261,26.261
			c7.53,7.532,20.103,7.533,27.633,0.001c7.618-7.618,7.618-20.013,0-27.631L395.85,332.148z M411.68,375.209
			c-1.696,1.924-4.756,2.022-6.57,0.206l-31.577-31.577c-2.896-2.895-7.732-2.895-10.628,0l-31.578,31.578
			c-1.814,1.815-4.875,1.715-6.57-0.208c-1.551-1.759-1.464-4.511,0.195-6.169l31.577-31.577c2.935-2.935,2.935-7.693,0-10.627
			l-31.577-31.577c-1.658-1.658-1.746-4.41-0.195-6.169c1.696-1.925,4.756-2.023,6.571-0.207l31.577,31.577
			c2.936,2.935,7.693,2.935,10.628,0l31.577-31.577c1.815-1.815,4.875-1.716,6.571,0.208c1.55,1.759,1.463,4.51-0.195,6.168
			l-31.577,31.577c-2.935,2.935-2.935,7.693,0,10.627l31.577,31.577C413.145,370.698,413.231,373.449,411.68,375.209z"/>
	</g>
</g>
<g>
	<g>
		<path d="M429.023,186.007l-40.078-32.063c-3.24-2.593-7.969-2.067-10.562,1.173c-2.593,3.24-2.067,7.97,1.173,10.563l23.35,18.679
			h-98.812c-21.823,0-39.577,17.755-39.577,39.577v80.157c0,13.535-11.013,24.548-24.548,24.548H95.687
			c-4.15,0-7.515,3.365-7.515,7.515s3.365,7.515,7.515,7.515h144.282c21.823,0,39.577-17.755,39.577-39.577v-80.157
			c0-13.535,11.012-24.548,24.548-24.548h98.812l-23.351,18.68c-2.942,2.354-3.679,6.672-1.67,9.863
			c2.357,3.743,7.6,4.641,11.06,1.873l40.078-32.063C432.724,194.781,432.724,188.97,429.023,186.007z"/>
	</g>
</g>
<g>
</g>
<g>
</g>
<g>
</g>
<g>
</g>
<g>
</g>
<g>
</g>
<g>
</g>
<g>
</g>
<g>
</g>
<g>
</g>
<g>
</g>
<g>
</g>
<g>
</g>
<g>
</g>
<g>
</g>
</svg>
