<svg id="Capa_1" enable-background="new 0 0 512 512" height="512" viewBox="0 0 512 512" width="512" xmlns="http://www.w3.org/2000/svg"><g><path d="m481.633 258.456c-4.287-76.056-47.105-144.517-113.166-182.456h56.113c6.192 17.459 22.865 30 42.42 30 24.813 0 45-20.187 45-45s-20.187-45-45-45c-19.555 0-36.228 12.541-42.42 30h-123.58v-30h-90v30h-123.58c-6.192-17.459-22.865-30-42.42-30-24.813 0-45 20.187-45 45s20.187 45 45 45c19.555 0 36.228-12.541 42.42-30.01h56.114c-66.027 37.928-108.879 106.368-113.167 182.466-17.649 6.087-30.367 22.853-30.367 42.544 0 24.813 20.187 45 45 45s45-20.187 45-45c0-19.405-12.347-35.98-29.597-42.283 5.465-85.267 67.366-157.873 150.597-177.499v24.782h90v-24.783c83.231 19.626 145.132 92.232 150.597 177.499-17.25 6.304-29.597 22.879-29.597 42.284 0 24.813 20.187 45 45 45s45-20.187 45-45c0-19.691-12.718-36.457-30.367-42.544zm-436.633 57.544c-8.271 0-15-6.729-15-15s6.729-15 15-15 15 6.729 15 15-6.729 15-15 15zm422-270c8.271 0 15 6.729 15 15s-6.729 15-15 15-15-6.729-15-15 6.729-15 15-15zm-422 30c-8.271 0-15-6.729-15-15s6.729-15 15-15 15 6.729 15 15-6.729 15-15 15zm226 0h-30v-30h30zm196 240c-8.271 0-15-6.729-15-15s6.729-15 15-15 15 6.729 15 15-6.729 15-15 15z"/><path d="m256 121.845-107.099 178.498 52.829 105.657h-50.73v90h210v-90h-50.73l52.829-105.657zm75 344.155h-150v-30h150zm-95.73-60-52.171-104.343 57.901-96.502v110.845h30v-110.845l57.901 96.502-52.171 104.343z"/></g></svg>